# Blender v2.77 (sub 0) OBJ File: ''
# www.blender.org
v -0.900000 -1.000000 -0.900000
v 0.900000 -1.000000 0.900000
v -0.900000 -1.000000 0.900000
v 1.000000 0.900000 0.900000
v 1.000000 -0.900000 -0.900000
v 1.000000 0.900000 -0.900000
v 0.900000 1.000000 -0.900000
v -0.900000 1.000000 0.900000
v 0.900000 1.000000 0.900000
v -0.900000 0.900000 1.000000
v 0.900000 -0.900000 1.000000
v 0.900000 0.900000 1.000000
v 0.900000 0.900000 -1.000000
v -0.900000 -0.900000 -1.000000
v -0.900000 0.900000 -1.000000
v -0.938268 -0.900000 0.992388
v -0.900000 -0.938268 0.992388
v -0.900000 -0.900000 1.000000
v -0.970711 -0.900000 0.970711
v -0.939227 -0.939227 0.983201
v -0.900000 -0.970711 0.970711
v -0.957735 -0.957735 0.957735
v -0.937237 -0.965625 0.965625
v -0.992388 -0.938268 0.900000
v -0.992388 -0.900000 0.938268
v -1.000000 -0.900000 0.900000
v -0.970711 -0.970711 0.900000
v -0.983201 -0.939227 0.939227
v -0.965625 -0.937237 0.965625
v -0.900000 -0.992388 0.938268
v -0.938268 -0.992388 0.900000
v -0.939227 -0.983201 0.939227
v -0.965625 -0.965625 0.937237
v -0.900000 0.938268 0.992388
v -0.938268 0.900000 0.992388
v -0.900000 0.970711 0.970711
v -0.939227 0.939227 0.983201
v -0.970711 0.900000 0.970711
v -0.957735 0.957735 0.957735
v -0.965625 0.937237 0.965625
v -0.938268 0.992388 0.900000
v -0.900000 0.992388 0.938268
v -0.970711 0.970711 0.900000
v -0.939227 0.983201 0.939227
v -0.937237 0.965625 0.965625
v -0.992388 0.900000 0.938268
v -0.992388 0.938268 0.900000
v -1.000000 0.900000 0.900000
v -0.983201 0.939227 0.939227
v -0.965625 0.965625 0.937237
v -0.900000 -0.938268 -0.992388
v -0.938268 -0.900000 -0.992388
v -0.900000 -0.970711 -0.970711
v -0.939227 -0.939227 -0.983201
v -0.970711 -0.900000 -0.970711
v -0.957735 -0.957735 -0.957735
v -0.965625 -0.937237 -0.965625
v -0.938268 -0.992388 -0.900000
v -0.900000 -0.992388 -0.938268
v -0.970711 -0.970711 -0.900000
v -0.939227 -0.983201 -0.939227
v -0.937237 -0.965625 -0.965625
v -0.992388 -0.900000 -0.938268
v -0.992388 -0.938268 -0.900000
v -1.000000 -0.900000 -0.900000
v -0.983201 -0.939227 -0.939227
v -0.965625 -0.965625 -0.937237
v -0.900000 0.992388 -0.938268
v -0.938268 0.992388 -0.900000
v -0.900000 1.000000 -0.900000
v -0.900000 0.970711 -0.970711
v -0.939227 0.983201 -0.939227
v -0.970711 0.970711 -0.900000
v -0.957735 0.957735 -0.957735
v -0.965625 0.965625 -0.937237
v -0.938268 0.900000 -0.992388
v -0.900000 0.938268 -0.992388
v -0.970711 0.900000 -0.970711
v -0.939227 0.939227 -0.983201
v -0.937237 0.965625 -0.965625
v -0.992388 0.938268 -0.900000
v -0.992388 0.900000 -0.938268
v -1.000000 0.900000 -0.900000
v -0.983201 0.939227 -0.939227
v -0.965625 0.937237 -0.965625
v 0.900000 -0.938268 0.992388
v 0.938268 -0.900000 0.992388
v 0.900000 -0.970711 0.970711
v 0.939227 -0.939227 0.983201
v 0.970711 -0.900000 0.970711
v 0.957735 -0.957735 0.957735
v 0.965625 -0.937237 0.965625
v 0.938268 -0.992388 0.900000
v 0.900000 -0.992388 0.938268
v 0.970711 -0.970711 0.900000
v 0.939227 -0.983201 0.939227
v 0.937237 -0.965625 0.965625
v 0.992388 -0.900000 0.938268
v 0.992388 -0.938268 0.900000
v 1.000000 -0.900000 0.900000
v 0.983201 -0.939227 0.939227
v 0.965625 -0.965625 0.937237
v 0.900000 0.992388 0.938268
v 0.938268 0.992388 0.900000
v 0.900000 0.970711 0.970711
v 0.939227 0.983201 0.939227
v 0.970711 0.970711 0.900000
v 0.957735 0.957735 0.957735
v 0.965625 0.965625 0.937237
v 0.938268 0.900000 0.992388
v 0.900000 0.938268 0.992388
v 0.970711 0.900000 0.970711
v 0.939227 0.939227 0.983201
v 0.937237 0.965625 0.965625
v 0.992388 0.938268 0.900000
v 0.992388 0.900000 0.938268
v 0.983201 0.939227 0.939227
v 0.965625 0.937237 0.965625
v 0.992388 -0.938268 -0.900000
v 0.992388 -0.900000 -0.938268
v 0.970711 -0.970711 -0.900000
v 0.983201 -0.939227 -0.939227
v 0.970711 -0.900000 -0.970711
v 0.957735 -0.957735 -0.957735
v 0.965625 -0.937237 -0.965625
v 0.900000 -0.992388 -0.938268
v 0.938268 -0.992388 -0.900000
v 0.900000 -1.000000 -0.900000
v 0.900000 -0.970711 -0.970711
v 0.939227 -0.983201 -0.939227
v 0.965625 -0.965625 -0.937237
v 0.938268 -0.900000 -0.992388
v 0.900000 -0.938268 -0.992388
v 0.900000 -0.900000 -1.000000
v 0.939227 -0.939227 -0.983201
v 0.937237 -0.965625 -0.965625
v 0.938268 0.992388 -0.900000
v 0.900000 0.992388 -0.938268
v 0.970711 0.970711 -0.900000
v 0.939227 0.983201 -0.939227
v 0.900000 0.970711 -0.970711
v 0.957735 0.957735 -0.957735
v 0.937237 0.965625 -0.965625
v 0.992388 0.900000 -0.938268
v 0.992388 0.938268 -0.900000
v 0.970711 0.900000 -0.970711
v 0.983201 0.939227 -0.939227
v 0.965625 0.965625 -0.937237
v 0.900000 0.938268 -0.992388
v 0.938268 0.900000 -0.992388
v 0.939227 0.939227 -0.983201
v 0.965625 0.937237 -0.965625
vt 0.012228 0.981789
vt 0.323505 0.518211
vt 0.323505 0.981789
vt 0.680704 0.981789
vt 0.988643 0.518211
vt 0.988643 0.981789
vt 0.323505 0.018211
vt 0.012228 0.481789
vt 0.012228 0.018211
vt 0.655030 0.018211
vt 0.347091 0.481789
vt 0.347091 0.018211
vt 0.987163 0.018211
vt 0.679224 0.481789
vt 0.679224 0.018211
vt 0.661769 0.481789
vt 0.655222 0.491645
vt 0.655030 0.481789
vt 0.667867 0.481789
vt 0.662165 0.491892
vt 0.655770 0.500000
vt 0.665975 0.496658
vt 0.662269 0.498690
vt 0.656317 0.508355
vt 0.662864 0.518211
vt 0.656509 0.518211
vt 0.655770 0.500000
vt 0.662796 0.508108
vt 0.667867 0.518211
vt 0.665319 0.503342
vt 0.666868 0.508621
vt 0.330123 0.981789
vt 0.323505 0.991645
vt 0.335733 0.981789
vt 0.330289 0.991892
vt 0.323505 1.000000
vt 0.333490 0.996658
vt 0.329945 0.998690
vt 0.655222 0.008355
vt 0.661769 0.018211
vt 0.655770 0.000000
vt 0.662165 0.008108
vt 0.667867 0.018211
vt 0.665975 0.003342
vt 0.667125 0.008621
vt 0.012228 0.491645
vt 0.005610 0.481789
vt 0.012228 0.500000
vt 0.005445 0.491892
vt 0.000000 0.481789
vt 0.002244 0.496658
vt 0.000879 0.491379
vt 0.662864 0.981789
vt 0.656317 0.991645
vt 0.656510 0.981789
vt 0.667867 0.981789
vt 0.662796 0.991892
vt 0.655770 1.000000
vt 0.665319 0.996658
vt 0.662012 0.998690
vt 0.679416 0.491644
vt 0.672870 0.481789
vt 0.679964 0.500000
vt 0.672937 0.491891
vt 0.667867 0.481789
vt 0.670414 0.496658
vt 0.668865 0.491379
vt 0.012228 0.991645
vt 0.005610 0.981789
vt 0.012228 1.000000
vt 0.005445 0.991892
vt 0.000000 0.981789
vt 0.002244 0.996658
vt 0.000879 0.991379
vt 0.341831 0.518211
vt 0.348378 0.508355
vt 0.348570 0.518211
vt 0.335733 0.518211
vt 0.341435 0.508108
vt 0.347830 0.500000
vt 0.337626 0.503342
vt 0.341332 0.501310
vt 0.330123 0.481789
vt 0.323505 0.491645
vt 0.323505 0.481789
vt 0.335733 0.481789
vt 0.330289 0.491892
vt 0.323505 0.500000
vt 0.333490 0.496658
vt 0.329945 0.498690
vt 0.672869 0.018211
vt 0.679416 0.008355
vt 0.667867 0.018211
vt 0.672937 0.008108
vt 0.679964 0.000000
vt 0.670414 0.003342
vt 0.673722 0.001310
vt 0.348378 0.991645
vt 0.341831 0.981789
vt 0.348570 0.981789
vt 0.347830 1.000000
vt 0.341435 0.991892
vt 0.335733 0.981789
vt 0.337626 0.996658
vt 0.336475 0.991379
vt 0.347283 0.491645
vt 0.340736 0.481789
vt 0.347831 0.500000
vt 0.340804 0.491892
vt 0.335734 0.481789
vt 0.338281 0.496658
vt 0.336732 0.491379
vt 0.323505 0.508355
vt 0.330123 0.518211
vt 0.323505 0.500000
vt 0.330289 0.508108
vt 0.335733 0.518211
vt 0.333489 0.503342
vt 0.334854 0.508621
vt 0.673964 0.518211
vt 0.680511 0.508355
vt 0.680703 0.518211
vt 0.667867 0.518211
vt 0.673568 0.508108
vt 0.679964 0.500000
vt 0.669759 0.503342
vt 0.673465 0.501310
vt 0.005610 0.018211
vt 0.012228 0.008355
vt 0.000000 0.018211
vt 0.005444 0.008108
vt 0.012228 0.000000
vt 0.002244 0.003342
vt 0.005789 0.001310
vt 0.340736 0.018211
vt 0.347283 0.008355
vt 0.335733 0.018211
vt 0.340804 0.008108
vt 0.347830 0.000000
vt 0.338281 0.003342
vt 0.341588 0.001310
vt 0.680511 0.991644
vt 0.673964 0.981789
vt 0.679964 1.000000
vt 0.673568 0.991892
vt 0.667867 0.981789
vt 0.669759 0.996658
vt 0.668608 0.991379
vt 0.988450 0.508355
vt 0.994997 0.518211
vt 0.987903 0.500000
vt 0.994929 0.508108
vt 1.000000 0.518211
vt 0.997452 0.503342
vt 0.999002 0.508621
vt 0.005610 0.518211
vt 0.012228 0.508355
vt 0.012228 0.518211
vt 0.000000 0.518211
vt 0.005444 0.508108
vt 0.012228 0.500000
vt 0.002244 0.503342
vt 0.005789 0.501310
vt 0.993902 0.481789
vt 0.987355 0.491644
vt 0.987163 0.481789
vt 1.000000 0.481789
vt 0.994298 0.491891
vt 0.987903 0.500000
vt 0.998108 0.496658
vt 0.994402 0.498690
vt 0.323505 0.008355
vt 0.330123 0.018211
vt 0.323505 0.000000
vt 0.330289 0.008108
vt 0.335733 0.018211
vt 0.333489 0.003342
vt 0.334854 0.008621
vt 0.994997 0.981789
vt 0.988450 0.991644
vt 1.000000 0.981789
vt 0.994929 0.991891
vt 0.987903 1.000000
vt 0.997452 0.996658
vt 0.994145 0.998690
vt 0.987355 0.008355
vt 0.993902 0.018211
vt 0.987903 0.000000
vt 0.994298 0.008108
vt 1.000000 0.018211
vt 0.998108 0.003342
vt 0.999258 0.008621
vt 0.667125 0.491379
vt 0.662012 0.501310
vt 0.334854 0.991379
vt 0.662269 0.001310
vt 0.005789 0.498690
vt 0.666868 0.991379
vt 0.673722 0.498690
vt 0.005789 0.998690
vt 0.336475 0.508621
vt 0.334854 0.491379
vt 0.668865 0.008621
vt 0.341332 0.998690
vt 0.341589 0.498690
vt 0.329945 0.501310
vt 0.668608 0.508621
vt 0.000879 0.008621
vt 0.336732 0.008621
vt 0.673465 0.998690
vt 0.994145 0.501310
vt 0.000879 0.508621
vt 0.999259 0.491379
vt 0.329945 0.001310
vt 0.999002 0.991379
vt 0.994402 0.001310
vn -0.097000 -0.990500 -0.097000
vn 0.097000 -0.990500 0.097000
vn -0.097000 -0.990500 0.097000
vn 0.990500 0.097000 0.097000
vn 0.990500 -0.097000 -0.097000
vn 0.990500 0.097000 -0.097000
vn 0.097000 0.990500 -0.097000
vn -0.097000 0.990500 0.097000
vn 0.097000 0.990500 0.097000
vn -0.097000 0.097000 0.990500
vn 0.097000 -0.097000 0.990500
vn 0.097000 0.097000 0.990500
vn 0.097000 0.097000 -0.990500
vn -0.097000 -0.097000 -0.990500
vn -0.097000 0.097000 -0.990500
vn -0.378300 -0.097200 0.920600
vn -0.097200 -0.378300 0.920600
vn -0.097000 -0.097000 0.990500
vn -0.704100 -0.091900 0.704100
vn -0.370300 -0.370300 0.851900
vn -0.091900 -0.704100 0.704100
vn -0.577300 -0.577400 0.577400
vn -0.326600 -0.668300 0.668300
vn -0.920600 -0.378300 0.097200
vn -0.920600 -0.097200 0.378300
vn -0.990500 -0.097000 0.097000
vn -0.704100 -0.704100 0.091900
vn -0.851900 -0.370300 0.370300
vn -0.668300 -0.326600 0.668300
vn -0.097200 -0.920600 0.378300
vn -0.378300 -0.920600 0.097200
vn -0.370300 -0.851900 0.370300
vn -0.668300 -0.668300 0.326600
vn -0.097200 0.378300 0.920600
vn -0.378300 0.097200 0.920600
vn -0.091900 0.704100 0.704100
vn -0.370300 0.370300 0.851900
vn -0.704100 0.091900 0.704100
vn -0.577400 0.577400 0.577300
vn -0.668300 0.326600 0.668300
vn -0.378300 0.920600 0.097200
vn -0.097200 0.920600 0.378300
vn -0.704100 0.704100 0.091900
vn -0.370300 0.851900 0.370300
vn -0.326600 0.668300 0.668300
vn -0.920600 0.097200 0.378300
vn -0.920600 0.378300 0.097200
vn -0.990500 0.097000 0.097000
vn -0.851900 0.370300 0.370300
vn -0.668300 0.668300 0.326600
vn -0.097200 -0.378300 -0.920600
vn -0.378300 -0.097200 -0.920600
vn -0.091900 -0.704100 -0.704100
vn -0.370300 -0.370300 -0.851900
vn -0.704100 -0.091900 -0.704100
vn -0.577400 -0.577400 -0.577300
vn -0.668300 -0.326600 -0.668300
vn -0.378300 -0.920600 -0.097200
vn -0.097200 -0.920600 -0.378300
vn -0.704100 -0.704100 -0.091900
vn -0.370300 -0.851900 -0.370300
vn -0.326600 -0.668300 -0.668300
vn -0.920600 -0.097200 -0.378300
vn -0.920600 -0.378300 -0.097200
vn -0.990500 -0.097000 -0.097000
vn -0.851900 -0.370300 -0.370300
vn -0.668300 -0.668300 -0.326600
vn -0.097200 0.920600 -0.378300
vn -0.378300 0.920600 -0.097200
vn -0.097000 0.990500 -0.097000
vn -0.091900 0.704100 -0.704100
vn -0.370300 0.851900 -0.370300
vn -0.704100 0.704100 -0.091900
vn -0.577300 0.577400 -0.577400
vn -0.668300 0.668300 -0.326600
vn -0.378300 0.097200 -0.920600
vn -0.097200 0.378300 -0.920600
vn -0.704100 0.091900 -0.704100
vn -0.370300 0.370300 -0.851900
vn -0.326600 0.668300 -0.668300
vn -0.920600 0.378300 -0.097200
vn -0.920600 0.097200 -0.378300
vn -0.990500 0.097000 -0.097000
vn -0.851900 0.370300 -0.370300
vn -0.668300 0.326600 -0.668300
vn 0.097200 -0.378300 0.920600
vn 0.378300 -0.097200 0.920600
vn 0.091900 -0.704100 0.704100
vn 0.370300 -0.370300 0.851900
vn 0.704100 -0.091900 0.704100
vn 0.577300 -0.577400 0.577400
vn 0.668300 -0.326600 0.668300
vn 0.378300 -0.920600 0.097200
vn 0.097200 -0.920600 0.378300
vn 0.704100 -0.704100 0.091900
vn 0.370300 -0.851900 0.370300
vn 0.326600 -0.668300 0.668300
vn 0.920600 -0.097200 0.378300
vn 0.920600 -0.378300 0.097200
vn 0.990500 -0.097000 0.097000
vn 0.851900 -0.370300 0.370300
vn 0.668300 -0.668300 0.326600
vn 0.097200 0.920600 0.378300
vn 0.378300 0.920600 0.097200
vn 0.091900 0.704100 0.704100
vn 0.370300 0.851900 0.370300
vn 0.704100 0.704100 0.091900
vn 0.577400 0.577400 0.577300
vn 0.668300 0.668300 0.326600
vn 0.378300 0.097200 0.920600
vn 0.097200 0.378300 0.920600
vn 0.704100 0.091900 0.704100
vn 0.370300 0.370300 0.851900
vn 0.326600 0.668300 0.668300
vn 0.920600 0.378300 0.097200
vn 0.920600 0.097200 0.378300
vn 0.851900 0.370300 0.370300
vn 0.668300 0.326600 0.668300
vn 0.920600 -0.378300 -0.097200
vn 0.920600 -0.097200 -0.378300
vn 0.704100 -0.704100 -0.091900
vn 0.851900 -0.370300 -0.370300
vn 0.704100 -0.091900 -0.704100
vn 0.577400 -0.577400 -0.577300
vn 0.668300 -0.326600 -0.668300
vn 0.097200 -0.920600 -0.378300
vn 0.378300 -0.920600 -0.097200
vn 0.097000 -0.990500 -0.097000
vn 0.091900 -0.704100 -0.704100
vn 0.370300 -0.851900 -0.370300
vn 0.668300 -0.668300 -0.326600
vn 0.378300 -0.097200 -0.920600
vn 0.097200 -0.378300 -0.920600
vn 0.097000 -0.097000 -0.990500
vn 0.370300 -0.370300 -0.851900
vn 0.326600 -0.668300 -0.668300
vn 0.378300 0.920600 -0.097200
vn 0.097200 0.920600 -0.378300
vn 0.704100 0.704100 -0.091900
vn 0.370300 0.851900 -0.370300
vn 0.091900 0.704100 -0.704100
vn 0.577300 0.577400 -0.577400
vn 0.326600 0.668300 -0.668300
vn 0.920600 0.097200 -0.378300
vn 0.920600 0.378300 -0.097200
vn 0.704100 0.091900 -0.704100
vn 0.851900 0.370300 -0.370300
vn 0.668300 0.668300 -0.326600
vn 0.097200 0.378300 -0.920600
vn 0.378300 0.097200 -0.920600
vn 0.370300 0.370300 -0.851900
vn 0.668300 0.326600 -0.668300
s 1
f 1/1/1 2/2/2 3/3/3
f 4/4/4 5/5/5 6/6/6
f 7/7/7 8/8/8 9/9/9
f 10/10/10 11/11/11 12/12/12
f 13/13/13 14/14/14 15/15/15
f 16/16/16 17/17/17 18/18/18
f 19/19/19 20/20/20 16/16/16
f 20/20/20 21/21/21 17/17/17
f 20/20/20 22/22/22 23/23/23
f 24/24/24 25/25/25 26/26/26
f 27/27/27 28/28/28 24/24/24
f 28/28/28 19/29/19 25/25/25
f 28/28/28 22/30/22 29/31/29
f 30/32/30 31/33/31 3/3/3
f 21/34/21 32/35/32 30/32/30
f 32/35/32 27/36/27 31/33/31
f 32/35/32 22/37/22 33/38/33
f 34/39/34 35/40/35 10/10/10
f 36/41/36 37/42/37 34/39/34
f 37/42/37 38/43/38 35/40/35
f 37/42/37 39/44/39 40/45/40
f 41/46/41 42/47/42 8/8/8
f 43/48/43 44/49/44 41/46/41
f 44/49/44 36/50/36 42/47/42
f 44/49/44 39/51/39 45/52/45
f 46/53/46 47/54/47 48/55/48
f 38/56/38 49/57/49 46/53/46
f 49/57/49 43/58/43 47/54/47
f 49/57/49 39/59/39 50/60/50
f 51/61/51 52/62/52 14/14/14
f 53/63/53 54/64/54 51/61/51
f 54/64/54 55/65/55 52/62/52
f 54/64/54 56/66/56 57/67/57
f 58/68/58 59/69/59 1/1/1
f 60/70/60 61/71/61 58/68/58
f 61/71/61 53/72/53 59/69/59
f 61/71/61 56/73/56 62/74/62
f 63/75/63 64/76/64 65/77/65
f 55/78/55 66/79/66 63/75/63
f 66/79/66 60/80/60 64/76/64
f 66/79/66 56/81/56 67/82/67
f 68/83/68 69/84/69 70/85/70
f 71/86/71 72/87/72 68/83/68
f 72/87/72 73/88/73 69/84/69
f 72/87/72 74/89/74 75/90/75
f 76/91/76 77/92/77 15/15/15
f 78/93/78 79/94/79 76/91/76
f 79/94/79 71/95/71 77/92/77
f 79/94/79 74/96/74 80/97/80
f 81/98/81 82/99/82 83/100/83
f 73/101/73 84/102/84 81/98/81
f 84/102/84 78/103/78 82/99/82
f 84/102/84 74/104/74 85/105/85
f 86/106/86 87/107/87 11/11/11
f 88/108/88 89/109/89 86/106/86
f 89/109/89 90/110/90 87/107/87
f 89/109/89 91/111/91 92/112/92
f 93/113/93 94/114/94 2/2/2
f 95/115/95 96/116/96 93/113/93
f 96/116/96 88/117/88 94/114/94
f 96/116/96 91/118/91 97/119/97
f 98/120/98 99/121/99 100/122/100
f 90/123/90 101/124/101 98/120/98
f 101/124/101 95/125/95 99/121/99
f 101/124/101 91/126/91 102/127/102
f 103/128/103 104/129/104 9/9/9
f 105/130/105 106/131/106 103/128/103
f 106/131/106 107/132/107 104/129/104
f 106/131/106 108/133/108 109/134/109
f 110/135/110 111/136/111 12/12/12
f 112/137/112 113/138/113 110/135/110
f 113/138/113 105/139/105 111/136/111
f 113/138/113 108/140/108 114/141/114
f 115/142/115 116/143/116 4/4/4
f 107/144/107 117/145/117 115/142/115
f 117/145/117 112/146/112 116/143/116
f 117/145/117 108/147/108 118/148/118
f 119/149/119 120/150/120 5/5/5
f 121/151/121 122/152/122 119/149/119
f 122/152/122 123/153/123 120/150/120
f 122/152/122 124/154/124 125/155/125
f 126/156/126 127/157/127 128/158/128
f 129/159/129 130/160/130 126/156/126
f 130/160/130 121/161/121 127/157/127
f 130/160/130 124/162/124 131/163/131
f 132/164/132 133/165/133 134/166/134
f 123/167/123 135/168/135 132/164/132
f 135/168/135 129/169/129 133/165/133
f 135/168/135 124/170/124 136/171/136
f 137/172/137 138/173/138 7/7/7
f 139/174/139 140/175/140 137/172/137
f 140/175/140 141/176/141 138/173/138
f 140/175/140 142/177/142 143/178/143
f 144/179/144 145/180/145 6/6/6
f 146/181/146 147/182/147 144/179/144
f 147/182/147 139/183/139 145/180/145
f 147/182/147 142/184/142 148/185/148
f 149/186/149 150/187/150 13/13/13
f 141/188/141 151/189/151 149/186/149
f 151/189/151 146/190/146 150/187/150
f 151/189/151 142/191/142 152/192/152
f 10/10/10 16/16/16 18/18/18
f 35/40/35 19/19/19 16/16/16
f 38/56/38 25/25/25 19/29/19
f 46/53/46 26/26/26 25/25/25
f 70/85/70 41/46/41 8/8/8
f 69/84/69 43/48/43 41/46/41
f 73/101/73 47/54/47 43/58/43
f 81/98/81 48/55/48 47/54/47
f 14/14/14 76/91/76 15/15/15
f 52/62/52 78/93/78 76/91/76
f 55/78/55 82/99/82 78/103/78
f 63/75/63 83/100/83 82/99/82
f 3/3/3 58/68/58 1/1/1
f 31/33/31 60/70/60 58/68/58
f 27/27/27 64/76/64 60/80/60
f 24/24/24 65/77/65 64/76/64
f 7/7/7 68/83/68 70/85/70
f 138/173/138 71/86/71 68/83/68
f 141/188/141 77/92/77 71/95/71
f 149/186/149 15/15/15 77/92/77
f 5/5/5 144/179/144 6/6/6
f 120/150/120 146/181/146 144/179/144
f 123/167/123 150/187/150 146/190/146
f 132/164/132 13/13/13 150/187/150
f 1/1/1 126/156/126 128/158/128
f 59/69/59 129/159/129 126/156/126
f 53/63/53 133/165/133 129/169/129
f 51/61/51 134/166/134 133/165/133
f 9/9/9 137/172/137 7/7/7
f 104/129/104 139/174/139 137/172/137
f 107/144/107 145/180/145 139/183/139
f 115/142/115 6/6/6 145/180/145
f 11/11/11 110/135/110 12/12/12
f 87/107/87 112/137/112 110/135/110
f 90/123/90 116/143/116 112/146/112
f 98/120/98 4/4/4 116/143/116
f 128/158/128 93/113/93 2/2/2
f 127/157/127 95/115/95 93/113/93
f 121/151/121 99/121/99 95/125/95
f 119/149/119 100/122/100 99/121/99
f 8/8/8 103/128/103 9/9/9
f 42/47/42 105/130/105 103/128/103
f 36/41/36 111/136/111 105/139/105
f 34/39/34 12/12/12 111/136/111
f 2/2/2 30/32/30 3/3/3
f 94/114/94 21/34/21 30/32/30
f 88/108/88 17/17/17 21/21/21
f 86/106/86 18/18/18 17/17/17
f 83/100/83 26/26/26 48/55/48
f 1/1/1 128/158/128 2/2/2
f 4/4/4 100/122/100 5/5/5
f 7/7/7 70/85/70 8/8/8
f 10/10/10 18/18/18 11/11/11
f 13/13/13 134/166/134 14/14/14
f 16/16/16 20/20/20 17/17/17
f 19/19/19 29/193/29 20/20/20
f 20/20/20 23/23/23 21/21/21
f 20/20/20 29/193/29 22/22/22
f 24/24/24 28/28/28 25/25/25
f 27/27/27 33/194/33 28/28/28
f 28/28/28 29/31/29 19/29/19
f 28/28/28 33/194/33 22/30/22
f 30/32/30 32/35/32 31/33/31
f 21/34/21 23/195/23 32/35/32
f 32/35/32 33/38/33 27/36/27
f 32/35/32 23/195/23 22/37/22
f 34/39/34 37/42/37 35/40/35
f 36/41/36 45/196/45 37/42/37
f 37/42/37 40/45/40 38/43/38
f 37/42/37 45/196/45 39/44/39
f 41/46/41 44/49/44 42/47/42
f 43/48/43 50/197/50 44/49/44
f 44/49/44 45/52/45 36/50/36
f 44/49/44 50/197/50 39/51/39
f 46/53/46 49/57/49 47/54/47
f 38/56/38 40/198/40 49/57/49
f 49/57/49 50/60/50 43/58/43
f 49/57/49 40/198/40 39/59/39
f 51/61/51 54/64/54 52/62/52
f 53/63/53 62/199/62 54/64/54
f 54/64/54 57/67/57 55/65/55
f 54/64/54 62/199/62 56/66/56
f 58/68/58 61/71/61 59/69/59
f 60/70/60 67/200/67 61/71/61
f 61/71/61 62/74/62 53/72/53
f 61/71/61 67/200/67 56/73/56
f 63/75/63 66/79/66 64/76/64
f 55/78/55 57/201/57 66/79/66
f 66/79/66 67/82/67 60/80/60
f 66/79/66 57/201/57 56/81/56
f 68/83/68 72/87/72 69/84/69
f 71/86/71 80/202/80 72/87/72
f 72/87/72 75/90/75 73/88/73
f 72/87/72 80/202/80 74/89/74
f 76/91/76 79/94/79 77/92/77
f 78/93/78 85/203/85 79/94/79
f 79/94/79 80/97/80 71/95/71
f 79/94/79 85/203/85 74/96/74
f 81/98/81 84/102/84 82/99/82
f 73/101/73 75/204/75 84/102/84
f 84/102/84 85/105/85 78/103/78
f 84/102/84 75/204/75 74/104/74
f 86/106/86 89/109/89 87/107/87
f 88/108/88 97/205/97 89/109/89
f 89/109/89 92/112/92 90/110/90
f 89/109/89 97/205/97 91/111/91
f 93/113/93 96/116/96 94/114/94
f 95/115/95 102/206/102 96/116/96
f 96/116/96 97/119/97 88/117/88
f 96/116/96 102/206/102 91/118/91
f 98/120/98 101/124/101 99/121/99
f 90/123/90 92/207/92 101/124/101
f 101/124/101 102/127/102 95/125/95
f 101/124/101 92/207/92 91/126/91
f 103/128/103 106/131/106 104/129/104
f 105/130/105 114/208/114 106/131/106
f 106/131/106 109/134/109 107/132/107
f 106/131/106 114/208/114 108/133/108
f 110/135/110 113/138/113 111/136/111
f 112/137/112 118/209/118 113/138/113
f 113/138/113 114/141/114 105/139/105
f 113/138/113 118/209/118 108/140/108
f 115/142/115 117/145/117 116/143/116
f 107/144/107 109/210/109 117/145/117
f 117/145/117 118/148/118 112/146/112
f 117/145/117 109/210/109 108/147/108
f 119/149/119 122/152/122 120/150/120
f 121/151/121 131/211/131 122/152/122
f 122/152/122 125/155/125 123/153/123
f 122/152/122 131/211/131 124/154/124
f 126/156/126 130/160/130 127/157/127
f 129/159/129 136/212/136 130/160/130
f 130/160/130 131/163/131 121/161/121
f 130/160/130 136/212/136 124/162/124
f 132/164/132 135/168/135 133/165/133
f 123/167/123 125/213/125 135/168/135
f 135/168/135 136/171/136 129/169/129
f 135/168/135 125/213/125 124/170/124
f 137/172/137 140/175/140 138/173/138
f 139/174/139 148/214/148 140/175/140
f 140/175/140 143/178/143 141/176/141
f 140/175/140 148/214/148 142/177/142
f 144/179/144 147/182/147 145/180/145
f 146/181/146 152/215/152 147/182/147
f 147/182/147 148/185/148 139/183/139
f 147/182/147 152/215/152 142/184/142
f 149/186/149 151/189/151 150/187/150
f 141/188/141 143/216/143 151/189/151
f 151/189/151 152/192/152 146/190/146
f 151/189/151 143/216/143 142/191/142
f 10/10/10 35/40/35 16/16/16
f 35/40/35 38/43/38 19/19/19
f 38/56/38 46/53/46 25/25/25
f 46/53/46 48/55/48 26/26/26
f 70/85/70 69/84/69 41/46/41
f 69/84/69 73/88/73 43/48/43
f 73/101/73 81/98/81 47/54/47
f 81/98/81 83/100/83 48/55/48
f 14/14/14 52/62/52 76/91/76
f 52/62/52 55/65/55 78/93/78
f 55/78/55 63/75/63 82/99/82
f 63/75/63 65/77/65 83/100/83
f 3/3/3 31/33/31 58/68/58
f 31/33/31 27/36/27 60/70/60
f 27/27/27 24/24/24 64/76/64
f 24/24/24 26/26/26 65/77/65
f 7/7/7 138/173/138 68/83/68
f 138/173/138 141/176/141 71/86/71
f 141/188/141 149/186/149 77/92/77
f 149/186/149 13/13/13 15/15/15
f 5/5/5 120/150/120 144/179/144
f 120/150/120 123/153/123 146/181/146
f 123/167/123 132/164/132 150/187/150
f 132/164/132 134/166/134 13/13/13
f 1/1/1 59/69/59 126/156/126
f 59/69/59 53/72/53 129/159/129
f 53/63/53 51/61/51 133/165/133
f 51/61/51 14/14/14 134/166/134
f 9/9/9 104/129/104 137/172/137
f 104/129/104 107/132/107 139/174/139
f 107/144/107 115/142/115 145/180/145
f 115/142/115 4/4/4 6/6/6
f 11/11/11 87/107/87 110/135/110
f 87/107/87 90/110/90 112/137/112
f 90/123/90 98/120/98 116/143/116
f 98/120/98 100/122/100 4/4/4
f 128/158/128 127/157/127 93/113/93
f 127/157/127 121/161/121 95/115/95
f 121/151/121 119/149/119 99/121/99
f 119/149/119 5/5/5 100/122/100
f 8/8/8 42/47/42 103/128/103
f 42/47/42 36/50/36 105/130/105
f 36/41/36 34/39/34 111/136/111
f 34/39/34 10/10/10 12/12/12
f 2/2/2 94/114/94 30/32/30
f 94/114/94 88/117/88 21/34/21
f 88/108/88 86/106/86 17/17/17
f 86/106/86 11/11/11 18/18/18
f 83/100/83 65/77/65 26/26/26
