# Blender v2.77 (sub 0) OBJ File: ''
# www.blender.org
v -6.499989 0.000000 6.499989
v 6.499989 0.000000 6.499989
v -6.499989 0.000000 -6.499989
v 6.499989 0.000000 -6.499989
v -6.499989 0.000000 -5.318173
v -6.499989 0.000000 -4.136356
v -6.499989 0.000000 -2.954540
v -6.499989 0.000000 -1.772724
v -6.499989 0.000000 -0.590908
v -6.499989 0.000000 0.590908
v -6.499989 0.000000 1.772724
v -6.499989 0.000000 2.954540
v -6.499989 0.000000 4.136356
v -6.499989 0.000000 5.318173
v -5.318173 0.000000 6.499989
v -4.136356 0.000000 6.499989
v -2.954540 0.000000 6.499989
v -1.772724 0.000000 6.499989
v -0.590908 0.000000 6.499989
v 0.590908 0.000000 6.499989
v 1.772724 0.000000 6.499989
v 2.954540 0.000000 6.499989
v 4.136356 0.000000 6.499989
v 5.318173 0.000000 6.499989
v 6.499989 0.000000 5.318173
v 6.499989 0.000000 4.136356
v 6.499989 0.000000 2.954540
v 6.499989 0.000000 1.772724
v 6.499989 0.000000 0.590908
v 6.499989 0.000000 -0.590908
v 6.499989 0.000000 -1.772724
v 6.499989 0.000000 -2.954540
v 6.499989 0.000000 -4.136356
v 6.499989 0.000000 -5.318173
v 5.318173 0.000000 -6.499989
v 4.136356 0.000000 -6.499989
v 2.954540 0.000000 -6.499989
v 1.772724 0.000000 -6.499989
v 0.590908 0.000000 -6.499989
v -0.590908 0.000000 -6.499989
v -1.772724 0.000000 -6.499989
v -2.954540 0.000000 -6.499989
v -4.136356 0.000000 -6.499989
v -5.318173 0.000000 -6.499989
v -5.318173 0.000000 5.318173
v -5.318173 0.000000 4.136356
v -5.318173 0.000000 2.954540
v -5.318173 0.000000 1.772724
v -5.318173 0.000000 0.590908
v -5.318173 0.000000 -0.590908
v -5.318173 0.000000 -1.772724
v -5.318173 0.000000 -2.954540
v -5.318173 0.000000 -4.136356
v -5.318173 0.000000 -5.318173
v -4.136356 0.000000 5.318173
v -4.136356 0.000000 4.136356
v -4.136356 0.000000 2.954540
v -4.136356 0.000000 1.772724
v -4.136356 0.000000 0.590908
v -4.136356 0.000000 -0.590908
v -4.136356 0.000000 -1.772724
v -4.136356 0.000000 -2.954540
v -4.136356 0.000000 -4.136356
v -4.136356 0.000000 -5.318173
v -2.954540 0.000000 5.318173
v -2.954540 0.000000 4.136356
v -2.954540 0.000000 2.954540
v -2.954540 0.000000 1.772724
v -2.954540 0.000000 0.590908
v -2.954540 0.000000 -0.590908
v -2.954540 0.000000 -1.772724
v -2.954540 0.000000 -2.954540
v -2.954540 0.000000 -4.136356
v -2.954540 0.000000 -5.318173
v -1.772724 0.000000 5.318173
v -1.772724 0.000000 4.136356
v -1.772724 0.000000 2.954540
v -1.772724 0.000000 1.772724
v -1.772724 0.000000 0.590908
v -1.772724 0.000000 -0.590908
v -1.772724 0.000000 -1.772724
v -1.772724 0.000000 -2.954540
v -1.772724 0.000000 -4.136356
v -1.772724 0.000000 -5.318173
v -0.590908 0.000000 5.318173
v -0.590908 0.000000 4.136356
v -0.590908 0.000000 2.954540
v -0.590908 0.000000 1.772724
v -0.590908 0.000000 0.590908
v -0.590908 0.000000 -0.590908
v -0.590908 0.000000 -1.772724
v -0.590908 0.000000 -2.954540
v -0.590908 0.000000 -4.136356
v -0.590908 0.000000 -5.318173
v 0.590908 0.000000 5.318173
v 0.590908 0.000000 4.136356
v 0.590908 0.000000 2.954540
v 0.590908 0.000000 1.772724
v 0.590908 0.000000 0.590908
v 0.590908 0.000000 -0.590908
v 0.590908 0.000000 -1.772724
v 0.590908 0.000000 -2.954540
v 0.590908 0.000000 -4.136356
v 0.590908 0.000000 -5.318173
v 1.772724 0.000000 5.318173
v 1.772724 0.000000 4.136356
v 1.772724 0.000000 2.954540
v 1.772724 0.000000 1.772724
v 1.772724 0.000000 0.590908
v 1.772724 0.000000 -0.590908
v 1.772724 0.000000 -1.772724
v 1.772724 0.000000 -2.954540
v 1.772724 0.000000 -4.136356
v 1.772724 0.000000 -5.318173
v 2.954540 0.000000 5.318173
v 2.954540 0.000000 4.136356
v 2.954540 0.000000 2.954540
v 2.954540 0.000000 1.772724
v 2.954540 0.000000 0.590908
v 2.954540 0.000000 -0.590908
v 2.954540 0.000000 -1.772724
v 2.954540 0.000000 -2.954540
v 2.954540 0.000000 -4.136356
v 2.954540 0.000000 -5.318173
v 4.136356 0.000000 5.318173
v 4.136356 0.000000 4.136356
v 4.136356 0.000000 2.954540
v 4.136356 0.000000 1.772724
v 4.136356 0.000000 0.590908
v 4.136356 0.000000 -0.590908
v 4.136356 0.000000 -1.772724
v 4.136356 0.000000 -2.954540
v 4.136356 0.000000 -4.136356
v 4.136356 0.000000 -5.318173
v 5.318173 0.000000 5.318173
v 5.318173 0.000000 4.136356
v 5.318173 0.000000 2.954540
v 5.318173 0.000000 1.772724
v 5.318173 0.000000 0.590908
v 5.318173 0.000000 -0.590908
v 5.318173 0.000000 -1.772724
v 5.318173 0.000000 -2.954540
v 5.318173 0.000000 -4.136356
v 5.318173 0.000000 -5.318173
vt 2.161310 1.859253
vt 1.859254 2.161309
vt 1.859254 1.859253
vt -0.859254 1.859253
vt -1.161310 2.161310
vt -1.161310 1.859253
vt -0.557197 1.859253
vt -0.859254 2.161310
vt -0.255141 2.161310
vt -0.557197 2.161310
vt -0.255141 1.859253
vt 0.046916 2.161310
vt 0.046916 1.859253
vt 0.348972 2.161310
vt 0.651029 1.859253
vt 0.348972 1.859253
vt 0.953085 1.859253
vt 0.651029 2.161310
vt 1.255141 1.859253
vt 0.953085 2.161310
vt 1.557198 1.859253
vt 1.255142 2.161310
vt 1.557198 2.161310
vt -0.859253 -1.161310
vt -1.161309 -0.859254
vt -1.161309 -1.161310
vt -0.859253 -0.859254
vt -1.161309 -0.557198
vt -0.859253 -0.557198
vt -1.161309 -0.255141
vt -0.859253 -0.255141
vt -1.161309 0.046915
vt -0.859253 0.046915
vt -1.161310 0.348971
vt -0.859253 0.348971
vt -1.161310 0.651028
vt -0.859253 0.651028
vt -1.161310 0.953084
vt -0.859253 0.953084
vt -1.161310 1.255141
vt -0.859253 1.255141
vt -1.161310 1.557197
vt -0.859253 1.557197
vt -0.557197 -1.161310
vt -0.557197 -0.859254
vt -0.557197 -0.557197
vt -0.557197 -0.255141
vt -0.557197 0.046915
vt -0.557197 0.348971
vt -0.557197 0.651028
vt -0.557197 0.953084
vt -0.557197 1.255141
vt -0.557197 1.557197
vt -0.255140 -1.161310
vt -0.255141 -0.859253
vt -0.255141 -0.557197
vt -0.255141 -0.255141
vt -0.255141 0.046915
vt -0.255141 0.348972
vt -0.255141 0.651028
vt -0.255141 0.953084
vt -0.255141 1.255141
vt -0.255141 1.557197
vt 0.046916 -1.161310
vt 0.046916 -0.859253
vt 0.046916 -0.557197
vt 0.046916 -0.255141
vt 0.046916 0.046915
vt 0.046916 0.348972
vt 0.046916 0.651028
vt 0.046916 0.953084
vt 0.046916 1.255141
vt 0.046916 1.557197
vt 0.348972 -1.161310
vt 0.348972 -0.859253
vt 0.348972 -0.557197
vt 0.348972 -0.255141
vt 0.348972 0.046915
vt 0.348972 0.348972
vt 0.348972 0.651028
vt 0.348972 0.953084
vt 0.348972 1.255141
vt 0.348972 1.557197
vt 0.651028 -1.161310
vt 0.651028 -0.859254
vt 0.651028 -0.557197
vt 0.651028 -0.255141
vt 0.651028 0.046915
vt 0.651028 0.651028
vt 0.651028 0.953084
vt 0.651029 1.557197
vt 0.953084 -1.161310
vt 0.953085 -0.859254
vt 0.953085 -0.557197
vt 0.953085 -0.255141
vt 0.953085 0.046915
vt 0.651028 0.348972
vt 0.953085 0.348972
vt 0.953085 0.651028
vt 0.953085 0.953084
vt 0.651028 1.255141
vt 0.953085 1.255141
vt 1.255141 -1.161310
vt 1.255141 -0.859254
vt 1.255141 -0.557197
vt 1.255141 -0.255141
vt 1.255141 0.046915
vt 1.255141 0.348972
vt 1.255141 0.651028
vt 1.255141 0.953084
vt 1.255141 1.255141
vt 0.953085 1.557197
vt 1.557197 -1.161310
vt 1.557197 -0.859254
vt 1.557197 -0.557197
vt 1.557197 -0.255141
vt 1.557197 0.046915
vt 1.557197 0.348972
vt 1.557197 0.651028
vt 1.557197 0.953084
vt 1.557197 1.255141
vt 1.255141 1.557197
vt 1.557198 1.557197
vt 1.859253 -1.161310
vt 1.859254 -0.859254
vt 1.859254 -0.557197
vt 1.859254 -0.255141
vt 1.859254 0.046915
vt 1.859254 0.348972
vt 1.859254 0.651028
vt 1.859254 0.953084
vt 1.859254 1.255141
vt 1.859254 1.557197
vt 2.161310 -1.161310
vt 2.161310 -0.859254
vt 2.161310 -0.557197
vt 2.161310 -0.255141
vt 2.161310 0.046915
vt 2.161310 0.348972
vt 2.161310 0.651028
vt 2.161310 0.953084
vt 2.161310 1.255141
vt 2.161310 1.557197
vt 2.161310 2.161309
vn 0.000000 1.000000 0.000000
s off
f 34/1/1 35/2/1 144/3/1
f 54/4/1 3/5/1 5/6/1
f 64/7/1 44/8/1 54/4/1
f 64/7/1 42/9/1 43/10/1
f 74/11/1 41/12/1 42/9/1
f 84/13/1 40/14/1 41/12/1
f 104/15/1 40/14/1 94/16/1
f 114/17/1 39/18/1 104/15/1
f 124/19/1 38/20/1 114/17/1
f 134/21/1 37/22/1 124/19/1
f 144/3/1 36/23/1 134/21/1
f 15/24/1 14/25/1 1/26/1
f 45/27/1 13/28/1 14/25/1
f 46/29/1 12/30/1 13/28/1
f 47/31/1 11/32/1 12/30/1
f 48/33/1 10/34/1 11/32/1
f 49/35/1 9/36/1 10/34/1
f 50/37/1 8/38/1 9/36/1
f 51/39/1 7/40/1 8/38/1
f 52/41/1 6/42/1 7/40/1
f 53/43/1 5/6/1 6/42/1
f 16/44/1 45/27/1 15/24/1
f 55/45/1 46/29/1 45/27/1
f 56/46/1 47/31/1 46/29/1
f 57/47/1 48/33/1 47/31/1
f 58/48/1 49/35/1 48/33/1
f 59/49/1 50/37/1 49/35/1
f 60/50/1 51/39/1 50/37/1
f 61/51/1 52/41/1 51/39/1
f 62/52/1 53/43/1 52/41/1
f 63/53/1 54/4/1 53/43/1
f 17/54/1 55/45/1 16/44/1
f 65/55/1 56/46/1 55/45/1
f 66/56/1 57/47/1 56/46/1
f 67/57/1 58/48/1 57/47/1
f 68/58/1 59/49/1 58/48/1
f 69/59/1 60/50/1 59/49/1
f 70/60/1 61/51/1 60/50/1
f 71/61/1 62/52/1 61/51/1
f 72/62/1 63/53/1 62/52/1
f 73/63/1 64/7/1 63/53/1
f 18/64/1 65/55/1 17/54/1
f 75/65/1 66/56/1 65/55/1
f 76/66/1 67/57/1 66/56/1
f 77/67/1 68/58/1 67/57/1
f 78/68/1 69/59/1 68/58/1
f 79/69/1 70/60/1 69/59/1
f 80/70/1 71/61/1 70/60/1
f 81/71/1 72/62/1 71/61/1
f 82/72/1 73/63/1 72/62/1
f 83/73/1 74/11/1 73/63/1
f 19/74/1 75/65/1 18/64/1
f 85/75/1 76/66/1 75/65/1
f 86/76/1 77/67/1 76/66/1
f 87/77/1 78/68/1 77/67/1
f 88/78/1 79/69/1 78/68/1
f 89/79/1 80/70/1 79/69/1
f 90/80/1 81/71/1 80/70/1
f 91/81/1 82/72/1 81/71/1
f 92/82/1 83/73/1 82/72/1
f 93/83/1 84/13/1 83/73/1
f 20/84/1 85/75/1 19/74/1
f 95/85/1 86/76/1 85/75/1
f 96/86/1 87/77/1 86/76/1
f 97/87/1 88/78/1 87/77/1
f 98/88/1 89/79/1 88/78/1
f 89/79/1 100/89/1 90/80/1
f 100/89/1 91/81/1 90/80/1
f 101/90/1 92/82/1 91/81/1
f 92/82/1 103/91/1 93/83/1
f 103/91/1 94/16/1 93/83/1
f 21/92/1 95/85/1 20/84/1
f 105/93/1 96/86/1 95/85/1
f 106/94/1 97/87/1 96/86/1
f 107/95/1 98/88/1 97/87/1
f 108/96/1 99/97/1 98/88/1
f 109/98/1 100/89/1 99/97/1
f 110/99/1 101/90/1 100/89/1
f 111/100/1 102/101/1 101/90/1
f 112/102/1 103/91/1 102/101/1
f 103/91/1 114/17/1 104/15/1
f 22/103/1 105/93/1 21/92/1
f 115/104/1 106/94/1 105/93/1
f 116/105/1 107/95/1 106/94/1
f 117/106/1 108/96/1 107/95/1
f 118/107/1 109/98/1 108/96/1
f 119/108/1 110/99/1 109/98/1
f 120/109/1 111/100/1 110/99/1
f 121/110/1 112/102/1 111/100/1
f 122/111/1 113/112/1 112/102/1
f 113/112/1 124/19/1 114/17/1
f 23/113/1 115/104/1 22/103/1
f 125/114/1 116/105/1 115/104/1
f 126/115/1 117/106/1 116/105/1
f 127/116/1 118/107/1 117/106/1
f 128/117/1 119/108/1 118/107/1
f 129/118/1 120/109/1 119/108/1
f 130/119/1 121/110/1 120/109/1
f 131/120/1 122/111/1 121/110/1
f 132/121/1 123/122/1 122/111/1
f 133/123/1 124/19/1 123/122/1
f 24/124/1 125/114/1 23/113/1
f 135/125/1 126/115/1 125/114/1
f 136/126/1 127/116/1 126/115/1
f 137/127/1 128/117/1 127/116/1
f 138/128/1 129/118/1 128/117/1
f 139/129/1 130/119/1 129/118/1
f 140/130/1 131/120/1 130/119/1
f 141/131/1 132/121/1 131/120/1
f 142/132/1 133/123/1 132/121/1
f 143/133/1 134/21/1 133/123/1
f 2/134/1 135/125/1 24/124/1
f 25/135/1 136/126/1 135/125/1
f 26/136/1 137/127/1 136/126/1
f 27/137/1 138/128/1 137/127/1
f 28/138/1 139/129/1 138/128/1
f 29/139/1 140/130/1 139/129/1
f 30/140/1 141/131/1 140/130/1
f 31/141/1 142/132/1 141/131/1
f 32/142/1 143/133/1 142/132/1
f 33/143/1 144/3/1 143/133/1
f 34/1/1 4/144/1 35/2/1
f 54/4/1 44/8/1 3/5/1
f 64/7/1 43/10/1 44/8/1
f 64/7/1 74/11/1 42/9/1
f 74/11/1 84/13/1 41/12/1
f 84/13/1 94/16/1 40/14/1
f 104/15/1 39/18/1 40/14/1
f 114/17/1 38/20/1 39/18/1
f 124/19/1 37/22/1 38/20/1
f 134/21/1 36/23/1 37/22/1
f 144/3/1 35/2/1 36/23/1
f 15/24/1 45/27/1 14/25/1
f 45/27/1 46/29/1 13/28/1
f 46/29/1 47/31/1 12/30/1
f 47/31/1 48/33/1 11/32/1
f 48/33/1 49/35/1 10/34/1
f 49/35/1 50/37/1 9/36/1
f 50/37/1 51/39/1 8/38/1
f 51/39/1 52/41/1 7/40/1
f 52/41/1 53/43/1 6/42/1
f 53/43/1 54/4/1 5/6/1
f 16/44/1 55/45/1 45/27/1
f 55/45/1 56/46/1 46/29/1
f 56/46/1 57/47/1 47/31/1
f 57/47/1 58/48/1 48/33/1
f 58/48/1 59/49/1 49/35/1
f 59/49/1 60/50/1 50/37/1
f 60/50/1 61/51/1 51/39/1
f 61/51/1 62/52/1 52/41/1
f 62/52/1 63/53/1 53/43/1
f 63/53/1 64/7/1 54/4/1
f 17/54/1 65/55/1 55/45/1
f 65/55/1 66/56/1 56/46/1
f 66/56/1 67/57/1 57/47/1
f 67/57/1 68/58/1 58/48/1
f 68/58/1 69/59/1 59/49/1
f 69/59/1 70/60/1 60/50/1
f 70/60/1 71/61/1 61/51/1
f 71/61/1 72/62/1 62/52/1
f 72/62/1 73/63/1 63/53/1
f 73/63/1 74/11/1 64/7/1
f 18/64/1 75/65/1 65/55/1
f 75/65/1 76/66/1 66/56/1
f 76/66/1 77/67/1 67/57/1
f 77/67/1 78/68/1 68/58/1
f 78/68/1 79/69/1 69/59/1
f 79/69/1 80/70/1 70/60/1
f 80/70/1 81/71/1 71/61/1
f 81/71/1 82/72/1 72/62/1
f 82/72/1 83/73/1 73/63/1
f 83/73/1 84/13/1 74/11/1
f 19/74/1 85/75/1 75/65/1
f 85/75/1 86/76/1 76/66/1
f 86/76/1 87/77/1 77/67/1
f 87/77/1 88/78/1 78/68/1
f 88/78/1 89/79/1 79/69/1
f 89/79/1 90/80/1 80/70/1
f 90/80/1 91/81/1 81/71/1
f 91/81/1 92/82/1 82/72/1
f 92/82/1 93/83/1 83/73/1
f 93/83/1 94/16/1 84/13/1
f 20/84/1 95/85/1 85/75/1
f 95/85/1 96/86/1 86/76/1
f 96/86/1 97/87/1 87/77/1
f 97/87/1 98/88/1 88/78/1
f 98/88/1 99/97/1 89/79/1
f 89/79/1 99/97/1 100/89/1
f 100/89/1 101/90/1 91/81/1
f 101/90/1 102/101/1 92/82/1
f 92/82/1 102/101/1 103/91/1
f 103/91/1 104/15/1 94/16/1
f 21/92/1 105/93/1 95/85/1
f 105/93/1 106/94/1 96/86/1
f 106/94/1 107/95/1 97/87/1
f 107/95/1 108/96/1 98/88/1
f 108/96/1 109/98/1 99/97/1
f 109/98/1 110/99/1 100/89/1
f 110/99/1 111/100/1 101/90/1
f 111/100/1 112/102/1 102/101/1
f 112/102/1 113/112/1 103/91/1
f 103/91/1 113/112/1 114/17/1
f 22/103/1 115/104/1 105/93/1
f 115/104/1 116/105/1 106/94/1
f 116/105/1 117/106/1 107/95/1
f 117/106/1 118/107/1 108/96/1
f 118/107/1 119/108/1 109/98/1
f 119/108/1 120/109/1 110/99/1
f 120/109/1 121/110/1 111/100/1
f 121/110/1 122/111/1 112/102/1
f 122/111/1 123/122/1 113/112/1
f 113/112/1 123/122/1 124/19/1
f 23/113/1 125/114/1 115/104/1
f 125/114/1 126/115/1 116/105/1
f 126/115/1 127/116/1 117/106/1
f 127/116/1 128/117/1 118/107/1
f 128/117/1 129/118/1 119/108/1
f 129/118/1 130/119/1 120/109/1
f 130/119/1 131/120/1 121/110/1
f 131/120/1 132/121/1 122/111/1
f 132/121/1 133/123/1 123/122/1
f 133/123/1 134/21/1 124/19/1
f 24/124/1 135/125/1 125/114/1
f 135/125/1 136/126/1 126/115/1
f 136/126/1 137/127/1 127/116/1
f 137/127/1 138/128/1 128/117/1
f 138/128/1 139/129/1 129/118/1
f 139/129/1 140/130/1 130/119/1
f 140/130/1 141/131/1 131/120/1
f 141/131/1 142/132/1 132/121/1
f 142/132/1 143/133/1 133/123/1
f 143/133/1 144/3/1 134/21/1
f 2/134/1 25/135/1 135/125/1
f 25/135/1 26/136/1 136/126/1
f 26/136/1 27/137/1 137/127/1
f 27/137/1 28/138/1 138/128/1
f 28/138/1 29/139/1 139/129/1
f 29/139/1 30/140/1 140/130/1
f 30/140/1 31/141/1 141/131/1
f 31/141/1 32/142/1 142/132/1
f 32/142/1 33/143/1 143/133/1
f 33/143/1 34/1/1 144/3/1
